<svg width="156" height="38" fill="none" xmlns="http://www.w3.org/2000/svg"><path d="M54.995 24.953c.047.141.188.424.423.424s.375-.283.422-.424L61.706 9h4.036l-7.133 17.835c-.376.941-1.173 2.165-3.191 2.165-.892 0-2.393-.188-3.191-2.165L45.094 9h4.036l5.865 15.953zM69.777 9h-3.284v2.965h3.284V9zm0 4.8h-3.284v14.965h3.284V13.8zm2.957 2.306c0-.47.047-1.13.469-1.6.61-.706 1.642-.659 2.3-.659h5.255c1.549 0 3.003.141 4.177 1.224.797.706 1.454 1.835 1.454 3.906v9.882h-3.285v-8.941c0-.989-.093-1.93-.61-2.636-.469-.611-1.173-.894-2.346-.894h-3.332c-.187 0-.375 0-.563.188-.188.189-.188.424-.188.612v11.624h-3.284V16.106h-.047zm33.224 3.717c-.47-.517-1.221-.94-2.159-1.035v-.094c.751-.047 1.314-.33 1.877-1.035.892-1.035.939-2.165.939-3.2 0-1.318-.141-3.106-1.221-4.236-1.032-1.082-2.487-1.176-3.566-1.176h-9.667c-.61 0-1.501.094-2.064.8-.423.518-.61 1.318-.61 2.024v14.117c0 1.13.469 1.788.656 2.024.798.894 1.69.8 2.675.8h9.432c1.22 0 2.487 0 3.614-1.27 1.126-1.271 1.126-2.871 1.126-4.142-.094-1.13-.094-2.541-1.032-3.576zm-3.379 5.271c-.563.659-1.596.706-2.159.706h-5.865c-.282 0-.892.047-1.22-.33-.141-.188-.235-.517-.235-1.176V13c0-.235.047-.612.234-.894.188-.283.517-.235.845-.235h6.1c.611 0 1.314 0 1.831.517.61.612.657 1.6.657 2.118 0 1.365-.282 1.835-.423 2.023-.516.706-1.314.706-2.018.706h-5.725V20.2h6.054c1.22 0 1.783.518 2.018.8.375.518.422 1.459.422 2.023-.047.706-.094 1.6-.516 2.071zm19.944-6.588v7.765c0 .517-.047 1.364-.61 1.929-.517.518-1.361.612-2.065.612h-7.133c-.798 0-1.877 0-2.722-.753-1.22-1.036-1.314-2.965-1.314-4.047 0-1.318.141-2.636 1.267-3.624.939-.8 1.924-.894 2.722-.894h5.115v2.541h-4.036c-.234 0-.844.047-1.22.518-.094.141-.375.518-.375 1.6 0 .47.047 1.224.469 1.647.235.235.657.47 1.079.47h4.599c.188 0 .516 0 .751-.188s.235-.376.235-.611v-7.06c0-.47-.047-.94-.423-1.411-.469-.565-1.079-.659-1.595-.659h-7.368V13.8h8.494c1.267 0 2.44.47 3.097 1.176.563.66 1.033 1.883 1.033 3.53zm2.956 7.718h8.4c.328 0 .798-.047 1.079-.424.282-.33.282-.706.282-.941 0-.377-.047-.8-.423-1.13-.234-.188-.61-.376-2.721-.94l-2.863-.8c-1.595-.424-2.675-.989-3.285-1.789-.61-.8-.704-1.788-.704-2.541 0-.753.094-1.741.704-2.541.892-1.224 2.3-1.318 3.567-1.318h8.446v2.541h-7.93c-.376 0-.798 0-1.173.282-.376.33-.423.66-.423 1.083 0 .423.047.8.47 1.176.422.33 1.454.66 1.877.753l3.191.894c1.783.518 3.003.895 3.707 1.695.751.8.891 1.929.891 2.729 0 1.788-.657 2.73-1.22 3.2-.75.565-1.689.612-2.393.612h-9.573v-2.541h.094zm21.117 2.588c-1.502 0-3.332-.141-4.552-1.883-.985-1.411-1.079-3.482-1.079-5.458 0-2.777.14-4.848 1.783-6.26 1.642-1.411 4.176-1.411 5.584-1.411 1.736 0 3.567.094 4.927.941 1.737 1.082 2.112 2.965 2.112 4.847 0 .753-.094 1.647-.704 2.26-.469.47-1.032.564-1.595.564h-8.682c0 .659.094 1.6.188 2.07.422 1.6 1.783 1.789 3.003 1.789h7.274v2.54h-8.259zm4.599-8.941c.657 0 .75-.471.75-.894a2.6 2.6 0 00-.938-2.024c-.798-.612-1.877-.659-2.816-.659-.891 0-2.205-.047-3.144.988-.657.753-.657 1.6-.657 2.589h6.805z" fill="#fff"/><path d="M26.756 27.352c-1.24-1.96-3.4-3.276-5.907-3.276a7 7 0 00-5.336 2.482l-.025.025a9.2 9.2 0 00-.571.794c-.025.025-.025.05-.05.074a7.028 7.028 0 00-.993 3.575 6.81 6.81 0 00.894 3.4L1.018 10.549c.024.024.024.05.05.074A6.868 6.868 0 006.95 13.9a6.938 6.938 0 006.95-6.95 7.05 7.05 0 00-.795-3.226l6.007 10.4 7.644 13.23z" fill="url(#paint0_linear)"/><path d="M27.005 34.277a6.849 6.849 0 00.794-3.252 6.938 6.938 0 00-6.95-6.95c-2.507 0-4.691 1.316-5.932 3.302-.025.025-.025.05-.05.074 0 .025-.024.025-.024.05l7.744-13.353 6.13-10.599a6.829 6.829 0 00-.918 3.4 6.938 6.938 0 006.95 6.95 6.928 6.928 0 005.832-3.177L27.004 34.277z" fill="url(#paint1_linear)"/><path d="M13.9 6.95a6.938 6.938 0 01-6.95 6.95 6.902 6.902 0 01-5.883-3.252c-.025-.025-.025-.05-.05-.075A6.988 6.988 0 010 6.95 6.938 6.938 0 016.95 0a6.951 6.951 0 016.155 3.723c.521.968.794 2.06.794 3.227z" fill="url(#paint2_linear)"/><path d="M41.698 6.95a6.938 6.938 0 01-6.95 6.95 6.902 6.902 0 01-5.882-3.252c-.025-.025-.025-.05-.05-.075A6.834 6.834 0 0127.8 6.975a6.938 6.938 0 016.95-6.95c2.68 0 4.988 1.514 6.155 3.723a6.87 6.87 0 01.794 3.202z" fill="url(#paint3_linear)"/><path d="M27.824 31.026A6.949 6.949 0 0120.849 38c-2.482 0-4.69-1.29-5.907-3.252-.025-.024-.025-.05-.05-.074a6.857 6.857 0 01-1.017-3.624 6.949 6.949 0 016.974-6.974 6.965 6.965 0 016.18 3.748c.497.918.795 2.035.795 3.201z" fill="url(#paint4_linear)"/><defs><linearGradient id="paint0_linear" x1="6.934" y1="6.723" x2="20.898" y2="31.281" gradientUnits="userSpaceOnUse"><stop stop-color="#fff"/><stop offset="1" stop-color="#3B3B3B" stop-opacity="0"/></linearGradient><linearGradient id="paint1_linear" x1="34.593" y1="6.974" x2="21.03" y2="30.89" gradientUnits="userSpaceOnUse"><stop stop-color="#3D3D3D" stop-opacity="0"/><stop offset="1" stop-color="#fff" stop-opacity=".85"/></linearGradient><linearGradient id="paint2_linear" x1="9.49" y1=".217" x2="4.433" y2="13.62" gradientUnits="userSpaceOnUse"><stop stop-color="#fff"/><stop offset="1" stop-color="#9F9F9F"/></linearGradient><linearGradient id="paint3_linear" x1="37.282" y1=".223" x2="32.226" y2="13.626" gradientUnits="userSpaceOnUse"><stop stop-color="#fff"/><stop offset="1" stop-color="#8E8E8E"/></linearGradient><linearGradient id="paint4_linear" x1="23.403" y1="24.264" x2="18.329" y2="37.714" gradientUnits="userSpaceOnUse"><stop stop-color="#fff"/><stop offset="1" stop-color="#8E8E8E"/></linearGradient></defs></svg>